name processed_emg_signals						
nRows=74						
nColumns=7						
 						
endheader						
time	RGLTMED	RRF	RADDLONG	RBF	RTA	RGM
0.000752	0.018161937	0.046493055	0.126693558	0.032816615	0.008861403	0.007463564
0.001752	0.019019217	0.047823433	0.110070101	0.033697523	0.006986225	0.004413232
0.002752	0.019869283	0.049149729	0.093465894	0.034576627	0.005102865	0.001375498
0.003752	0.020711468	0.050470955	0.076889363	0.035453333	0.003212075	0.001647977
0.004752	0.021545114	0.051786125	0.06034887	0.036327054	0.001314609	0.004655553
0.005752	0.02236957	0.053094259	0.043852696	0.037197203	0.000588779	0.007645613
0.006752	0.023184197	0.054394383	0.027409036	0.038063205	0.002497332	0.010616567
0.007752	0.023988364	0.055685532	0.011025986	0.03892449	0.004410297	0.013566854
0.008752	0.024781452	0.056966751	0.005288466	0.039780497	0.006326919	0.016494943
0.009752	0.025562855	0.058237099	0.021526451	0.040630674	0.008246448	0.019399335
0.010752	0.026331983	0.059495646	0.037680227	0.041474482	0.010168133	0.022278567
0.011752	0.027088256	0.060741478	0.05374219	0.042311394	0.012091229	0.025131212
0.012752	0.027831115	0.061973697	0.069704881	0.043140892	0.014014995	0.027955881
0.013752	0.028560014	0.063191423	0.085560994	0.043962477	0.015938692	0.030751226
0.014752	0.029274426	0.064393799	0.101303387	0.044775663	0.017861588	0.033515941
0.015752	0.029973843	0.065579984	0.116925089	0.045579978	0.019782956	0.036248764
0.016752	0.030657777	0.066749162	0.132419303	0.046374968	0.021702075	0.038948477
0.017752	0.031325759	0.067900542	0.147779419	0.047160198	0.023618229	0.04161391
0.018752	0.031977341	0.069033355	0.162999014	0.047935249	0.02553071	0.044243939
0.019752	0.032612098	0.070146859	0.178071866	0.048699721	0.027438819	0.046837493
0.020752	0.033229628	0.071240342	0.192991952	0.049453236	0.029341861	0.049393547
0.021752	0.033829551	0.072313116	0.207753455	0.050195434	0.03123915	0.051911131
0.022752	0.034411511	0.073364524	0.222350772	0.050925976	0.033130008	0.054389325
0.023752	0.034975177	0.07439394	0.236778516	0.051644544	0.035013767	0.056827263
0.024752	0.035520242	0.075400766	0.251031516	0.052350843	0.036889764	0.059224134
0.025752	0.036046426	0.076384439	0.265104827	0.053044598	0.038757347	0.061579179
0.026752	0.036553473	0.077344423	0.278993727	0.053725556	0.040615871	0.063891697
0.027752	0.037041153	0.078280217	0.292693725	0.05439349	0.042464701	0.066161038
0.028752	0.037509263	0.079191352	0.306200554	0.05504819	0.044303209	0.068386612
0.029752	0.037957627	0.080077392	0.319510183	0.055689471	0.046130778	0.07056788
0.030752	0.038386092	0.080937933	0.332618808	0.056317171	0.047946797	0.072704362
0.031752	0.038794537	0.081772602	0.34552286	0.056931149	0.049750665	0.07479563
0.032752	0.039182862	0.082581062	0.358218999	0.057531285	0.051541789	0.076841314
0.033752	0.039550998	0.083363006	0.370704118	0.058117483	0.053319585	0.078841095
0.034752	0.0398989	0.08411816	0.382975339	0.058689666	0.055083476	0.08079471
0.035752	0.040226549	0.084846282	0.395030011	0.059247779	0.056832895	0.082701948
0.036752	0.040533954	0.08554716	0.406865711	0.059791789	0.058567281	0.084562651
0.037752	0.040821147	0.086220617	0.418480238	0.060321679	0.060286081	0.086376713
0.038752	0.041088189	0.086866502	0.429871612	0.060837455	0.061988752	0.088144077
0.039752	0.041335162	0.087484699	0.44103807	0.06133914	0.063674756	0.089864736
0.040752	0.041562176	0.088075117	0.451978063	0.061826778	0.065343564	0.091538732
0.041752	0.041769365	0.088637698	0.46269025	0.062300426	0.066994651	0.093166154
0.042752	0.041956883	0.089172412	0.473173497	0.062760161	0.068627502	0.094747136
0.043752	0.042124913	0.089679255	0.483426867	0.063206076	0.070241609	0.096281856
0.044752	0.042273656	0.090158252	0.493449619	0.063638277	0.071836468	0.097770538
0.045752	0.042403338	0.090609454	0.503241203	0.064056889	0.073411583	0.099213445
0.046752	0.042514205	0.09103294	0.51280125	0.064462045	0.074966465	0.10061088
0.047752	0.042606525	0.091428811	0.522129572	0.064853895	0.076500631	0.101963184
0.048752	0.042680584	0.091797195	0.531226152	0.0652326	0.078013603	0.103270738
0.049752	0.042736689	0.092138243	0.540091138	0.065598331	0.07950491	0.104533955
0.050752	0.042775166	0.09245213	0.54872484	0.065951269	0.080974087	0.105753282
0.051752	0.042796359	0.092739054	0.55712772	0.066291608	0.082420676	0.1069292
0.052752	0.042800628	0.092999233	0.565300388	0.066619545	0.083844223	0.108062217
0.053752	0.04278835	0.093232908	0.573243596	0.066935289	0.085244283	0.109152872
0.054752	0.042759918	0.093440338	0.580958228	0.067239052	0.086620414	0.11020173
0.055752	0.042715739	0.093621806	0.588445298	0.067531056	0.087972185	0.111209379
0.056752	0.042656234	0.093777609	0.595705941	0.067811523	0.089299166	0.112176433
0.057752	0.042581837	0.093908066	0.602741407	0.068080683	0.09060094	0.113103526
0.058752	0.042492995	0.094013512	0.609553055	0.068338768	0.091877091	0.113991312
0.059752	0.042390165	0.0940943	0.616142346	0.06858601	0.093127217	0.114840464
0.060752	0.042273816	0.094150799	0.622510839	0.068822646	0.094350918	0.115651669
0.061752	0.042144426	0.094183392	0.62866018	0.069048913	0.095547805	0.116425631
0.062752	0.04200248	0.094192481	0.634592102	0.069265045	0.096717497	0.117163067
0.063752	0.041848474	0.094178479	0.640308415	0.069471279	0.097859623	0.117864705
0.064752	0.041682909	0.094141813	0.645811	0.069667849	0.09897382	0.118531281
0.065752	0.041506292	0.094082926	0.651101807	0.069854987	0.100059737	0.119163543
0.066752	0.041319136	0.094002271	0.656182847	0.070032921	0.101117031	0.119762243
0.067752	0.041121959	0.093900315	0.661056187	0.070201879	0.102145373	0.120328141
0.068752	0.040915282	0.093777534	0.665723945	0.070362082	0.103144445	0.120861998
0.069752	0.040699627	0.093634418	0.670188287	0.070513747	0.104113941	0.121364579
0.070752	0.040475522	0.093471466	0.674451419	0.070657089	0.10505357	0.121836652
0.071752	0.040243492	0.093289186	0.678515587	0.070792313	0.105963053	0.122278983
0.072752	0.040004066	0.093088097	0.682383071	0.070919622	0.106842128	0.122692338
0.073752	0.039757771	0.092868726	0.68605618	0.071039212	0.107690547	0.123077479
